<?xml version="1.0" encoding="UTF-8"?>
<!DOCTYPE svg PUBLIC "-//W3C//DTD SVG 1.1//EN" "http://www.w3.org/Graphics/SVG/1.1/DTD/svg11.dtd">
<svg xmlns="http://www.w3.org/2000/svg" version="1.1" width="2133px" height="2133px" style="shape-rendering:geometricPrecision; text-rendering:geometricPrecision; image-rendering:optimizeQuality; fill-rule:evenodd; clip-rule:evenodd" xmlns:xlink="http://www.w3.org/1999/xlink">
<g><path style="opacity:0.995" fill="#f4531d" d="M 1697.5,434.5 C 1694.11,434.062 1691.11,434.895 1688.5,437C 1531.45,594.722 1373.78,751.722 1215.5,908C 1214.91,908.464 1214.24,908.631 1213.5,908.5C 1180.76,878.262 1148.76,847.095 1117.5,815C 1083.98,793.249 1049.65,791.916 1014.5,811C 919,906.5 823.5,1002 728,1097.5C 702.431,1139.49 705.098,1179.49 736,1217.5C 765.264,1244.15 798.097,1249.65 834.5,1234C 842.172,1229.83 849.505,1225.17 856.5,1220C 924.833,1151.67 993.167,1083.33 1061.5,1015C 1063.17,1014.33 1064.83,1014.33 1066.5,1015C 1073.11,1022.45 1080.44,1028.95 1088.5,1034.5C 1088.5,1036.17 1088.5,1037.83 1088.5,1039.5C 867.387,1255.95 649.387,1475.28 434.5,1697.5C 294.995,1562.5 211.495,1398.17 184,1204.5C 143.209,910.246 224.209,655.912 427,441.5C 446.892,420.94 467.392,401.106 488.5,382C 724.285,193.236 990.285,132.236 1286.5,199C 1446.96,237.858 1583.96,316.358 1697.5,434.5 Z"/></g>
<g><path style="opacity:0.999" fill="#dd4d1a" d="M 1697.5,434.5 C 1848.94,584.088 1933.1,765.755 1950,979.5C 1972.5,1241.35 1896.5,1469.35 1722,1663.5C 1696.5,1691.67 1669.67,1718.5 1641.5,1744C 1359.4,1965.07 1049.73,2012.74 712.5,1887C 606.9,1842.4 514.234,1779.23 434.5,1697.5C 649.387,1475.28 867.387,1255.95 1088.5,1039.5C 1153.02,1102.86 1218.02,1165.69 1283.5,1228C 1326.98,1249.95 1365.48,1243.45 1399,1208.5C 1409.25,1196.43 1415.25,1182.43 1417,1166.5C 1419.85,1146.07 1416.51,1126.74 1407,1108.5C 1345.06,1041.89 1281.06,977.226 1215,914.5C 1214.8,912.618 1214.3,910.952 1213.5,909.5C 1213.5,909.167 1213.5,908.833 1213.5,908.5C 1214.24,908.631 1214.91,908.464 1215.5,908C 1373.78,751.722 1531.45,594.722 1688.5,437C 1691.11,434.895 1694.11,434.062 1697.5,434.5 Z"/></g>
<g><path style="opacity:1" fill="#fefdfc" d="M 1213.5,908.5 C 1213.5,908.833 1213.5,909.167 1213.5,909.5C 1213.66,911.199 1213.49,912.866 1213,914.5C 1171.63,954.703 1130.13,994.703 1088.5,1034.5C 1080.44,1028.95 1073.11,1022.45 1066.5,1015C 1064.83,1014.33 1063.17,1014.33 1061.5,1015C 993.167,1083.33 924.833,1151.67 856.5,1220C 849.505,1225.17 842.172,1229.83 834.5,1234C 798.097,1249.65 765.264,1244.15 736,1217.5C 705.098,1179.49 702.431,1139.49 728,1097.5C 823.5,1002 919,906.5 1014.5,811C 1049.65,791.916 1083.98,793.249 1117.5,815C 1148.76,847.095 1180.76,878.262 1213.5,908.5 Z"/></g>
<g><path style="opacity:1" fill="#e6e4e3" d="M 1213.5,909.5 C 1214.3,910.952 1214.8,912.618 1215,914.5C 1281.06,977.226 1345.06,1041.89 1407,1108.5C 1416.51,1126.74 1419.85,1146.07 1417,1166.5C 1415.25,1182.43 1409.25,1196.43 1399,1208.5C 1365.48,1243.45 1326.98,1249.95 1283.5,1228C 1218.02,1165.69 1153.02,1102.86 1088.5,1039.5C 1088.5,1037.83 1088.5,1036.17 1088.5,1034.5C 1130.13,994.703 1171.63,954.703 1213,914.5C 1213.49,912.866 1213.66,911.199 1213.5,909.5 Z"/></g>
</svg>
